<svg xmlns="http://www.w3.org/2000/svg" width="184.892" height="95.181" viewBox="0 0 184.892 95.181">
  <defs>
    <style>
      .cls-1, .cls-2 {
        fill: #dd0f79;
      }

      .cls-2 {
        fill-rule: evenodd;
      }
    </style>
  </defs>
  <g id="reckittLogo" transform="translate(-0.154 -0.264)">
    <path id="Path_1" data-name="Path 1" class="cls-1" d="M57.763,34.754C57.763,14.6,72.75.264,91.133.264c18.06,0,29.848,12.435,29.848,29.422,0,14.4-10.144,25.1-24.477,25.1-12.978,0-22-9.138-22-21.475,0-11.123,7.941-18.924,17.428-18.924,7.975,0,12.552,4.54,12.552,10.966,0,4.142-2.632,8.379-8.458,9.342a74.736,74.736,0,0,0,6.838,5.869l-4.239,2.969C96,41.863,89.733,36.445,87.117,32.7l4.026-2.819c3.79,1.062,7.488-.934,7.488-4.51,0-3.12-2.391-5.176-6.757-5.176-5.811,0-10.636,5.107-10.636,12.734,0,8.654,6.272,14.737,15.154,14.737,9.285,0,16.443-6.983,16.443-17.734,0-12.018-8.106-21.327-21.307-21.327-13.514,0-24.053,10.878-24.053,25.24a30.993,30.993,0,0,0,2.847,13.3l-8.388,5.873A41.132,41.132,0,0,1,57.763,34.754Z" transform="translate(64.065 0)"/>
    <path id="Path_2" data-name="Path 2" class="cls-1" d="M7.238,35.924h.026c1.284-2.917,3.41-4.806,7.083-4.806a10.25,10.25,0,0,1,5.033,1.25l-3.493,6.452A6.449,6.449,0,0,0,13,38.244,5.1,5.1,0,0,0,8.828,40.1C7.7,41.481,7.29,42.869,7.29,46.835v13.6H.154V31.809H7.238Z" transform="translate(0 34.31)"/>
    <path id="Path_3" data-name="Path 3" class="cls-2" d="M23.477,61.127c-9.487,0-14.922-5.393-14.922-14.867,0-7.711,4.327-15.144,13.7-15.144,8.876,0,11.838,6.546,11.838,13.757,0,1.5-.047,2.755-.166,4.065H15.844c.753,3.814,3.358,5.766,8.037,5.819a14.9,14.9,0,0,0,7.037-1.568l2.44,6A23.311,23.311,0,0,1,23.477,61.127ZM27.092,43.7c0-3.5-1.718-6.6-5.318-6.6-3.152,0-5.4,2.212-6.009,6.6Z" transform="translate(9.342 34.309)"/>
    <path id="Path_4" data-name="Path 4" class="cls-1" d="M73.619,36.8V31.615l7.124-4.99V36.8h7.531v6.043H80.744V56.315c0,2.13.917,3.29,3.037,3.29a6.314,6.314,0,0,0,3.067-.862L89.24,64.79a15.1,15.1,0,0,1-6.355,1.339c-2.993,0-5.395-.655-6.952-2.256s-2.313-3.768-2.313-7.008V42.847H63.831V56.391c0,2.054.917,3.214,3.037,3.214a6.313,6.313,0,0,0,3.067-.862l2.392,6.047a15.106,15.106,0,0,1-6.355,1.339c-2.994,0-5.395-.655-6.952-2.256s-2.313-3.768-2.313-7.008V42.847h-4.4V36.8h4.4V31.614l7.124-4.989V36.8Z" transform="translate(57.996 29.316)"/>
    <path id="Path_5" data-name="Path 5" class="cls-1" d="M54.719,60.069h-7.16V31.445h7.16Z" transform="translate(52.718 34.675)"/>
    <path id="Path_6" data-name="Path 6" class="cls-1" d="M47.89,32.646A4.474,4.474,0,1,1,49.9,34.294,4.474,4.474,0,0,1,47.89,32.646Z" transform="translate(52.247 28.272)"/>
    <path id="Path_7" data-name="Path 7" class="cls-1" d="M34.232,67.167V30.1l7.189-5.034V49.026l9.006-10.483h9.238L48.214,51.216l11.31,15.951H50.5L41.421,53.789V67.167Z" transform="translate(37.897 27.576)"/>
    <path id="Path_8" data-name="Path 8" class="cls-1" d="M36.372,61.129a19.33,19.33,0,0,0,8.586-1.781l-2.422-6.124A11.02,11.02,0,0,1,36.7,54.713c-4.522-.015-7.64-2.807-7.64-8.589,0-5.331,2.795-8.587,7.7-8.587a11.129,11.129,0,0,1,5.769,1.487l2.483-6.1a19.957,19.957,0,0,0-8.775-1.808c-8.855,0-14.378,6.158-14.378,15.144C21.866,55.713,27.659,61.129,36.372,61.129Z" transform="translate(24.145 34.306)"/>
  </g>
</svg>
